<?xml version="1.0" encoding="UTF-8"?>
<!DOCTYPE svg PUBLIC "-//W3C//DTD SVG 1.1//EN" "http://www.w3.org/Graphics/SVG/1.1/DTD/svg11.dtd">
<!-- Creator: CorelDRAW X8 -->
<svg xmlns="http://www.w3.org/2000/svg" xml:space="preserve" width="102.023mm" height="26.2466mm" version="1.1" style="shape-rendering:geometricPrecision; text-rendering:geometricPrecision; image-rendering:optimizeQuality; fill-rule:evenodd; clip-rule:evenodd"
viewBox="0 0 10202 2625"
 xmlns:xlink="http://www.w3.org/1999/xlink">
 <defs>
  <style type="text/css">
   <![CDATA[
    .str0 {stroke:#282829;stroke-width:7.62}
    .str1 {stroke:black;stroke-width:7.62}
    .fil3 {fill:#FEFEFE}
    .fil4 {fill:#FEFEFE}
    .fil5 {fill:#D2D3D5}
    .fil9 {fill:#EC268F}
    .fil1 {fill:#314F9F}
    .fil2 {fill:#FC0FC0}
    .fil10 {fill:white}
    .fil11 {fill:#3958A4;fill-rule:nonzero}
    .fil0 {fill:#2F3866;fill-rule:nonzero}
    .fil7 {fill:url(#id3)}
    .fil8 {fill:url(#id4)}
    .fil6 {fill:url(#id5)}
   ]]>
  </style>
    <clipPath id="id0">
     <path d="M7177 203l2339 -10 0 2402 -2339 9 0 -2401z"/>
    </clipPath>
    <clipPath id="id1">
     <path d="M8133 1491l1613 -6 0 1059 -1613 7 0 -1060z"/>
    </clipPath>
    <clipPath id="id2">
     <path d="M7318 27l1227 -6 0 713 -1227 5 0 -712z"/>
    </clipPath>
  <linearGradient id="id3" gradientUnits="userSpaceOnUse" x1="9252.45" y1="1280.61" x2="7458.3" y2="1524.5">
   <stop offset="0" style="stop-opacity:1; stop-color:#2F52A0"/>
   <stop offset="1" style="stop-opacity:1; stop-color:#4560A9"/>
  </linearGradient>
  <linearGradient id="id4" gradientUnits="userSpaceOnUse" xlink:href="#id3" x1="9610.45" y1="1884.65" x2="8281.83" y2="2156.32">
  </linearGradient>
  <linearGradient id="id5" gradientUnits="userSpaceOnUse" xlink:href="#id3" x1="8846.99" y1="1022.76" x2="9824.52" y2="1648">
  </linearGradient>
 </defs>
 <g id="Camada_x0020_1">
  <metadata id="CorelCorpID_0Corel-Layer"/>
  <path class="fil0 str0" d="M4278 1557c-231,0 -461,1 -691,1 -63,159 48,201 215,199 124,-2 247,-4 371,-6 -22,77 -43,153 -64,229 -18,69 -202,59 -415,57 -214,-2 -409,-37 -471,-269 -23,-88 -18,-192 15,-311 52,-191 150,-324 271,-409 122,-86 268,-123 418,-124 201,0 391,-2 428,198 11,62 2,136 -16,213 -17,76 -41,153 -61,222zm-239 -199c25,-132 -18,-207 -139,-205 -116,1 -221,76 -265,206 134,0 269,0 404,-1z"/>
  <path class="fil0 str0" d="M5877 406c135,0 268,-1 403,-1 -79,274 -157,547 -236,819 -78,271 -156,542 -232,812 -134,0 -267,0 -400,-1 77,-269 154,-540 232,-811 78,-272 155,-544 233,-818z"/>
  <path class="fil0 str0" d="M2519 934c44,0 89,0 133,0 -31,115 -62,230 -93,344 -49,0 -98,0 -147,0 -34,128 -68,255 -103,381 -34,127 -68,254 -101,380 -133,0 -265,0 -397,0 38,-137 75,-275 112,-414 37,-138 75,-277 112,-416 29,-110 59,-220 89,-330 2,-8 4,-17 7,-26 -1,0 7,-26 8,-27 112,-408 91,-412 667,-406 -27,100 -55,201 -82,301 -71,0 -161,44 -172,86 -12,43 -23,85 -33,127z"/>
  <path class="fil0 str0" d="M2752 936c116,0 233,0 351,-1 -11,43 -18,61 -15,61 7,-1 82,-59 240,-63 -25,85 -49,170 -74,254 -138,4 -169,-12 -211,134 -17,57 -38,138 -70,255 -32,117 -73,269 -129,466 -131,0 -263,-1 -393,-2 49,-183 100,-367 150,-550 50,-184 100,-369 151,-554z"/>
  <path class="fil0 str0" d="M6167 1225c21,-78 41,-156 62,-233 2,-7 34,-38 58,-45 148,-41 929,-73 862,240 -33,156 -69,290 -104,425 -35,135 -71,270 -106,426 -121,0 -241,0 -362,0 10,-34 13,-47 23,-82 -130,91 -339,82 -419,82 -152,0 -255,-137 -202,-323 113,-394 548,-349 779,-378 22,-76 -21,-128 -93,-136 -155,-17 -384,8 -498,24zm538 322c-147,7 -437,39 -438,195 0,181 380,6 392,-32 15,-52 15,-51 46,-163z"/>
  <path class="fil0 str0" d="M5448 1558c-231,0 -463,0 -693,1 -64,159 48,201 215,199 124,-2 248,-4 372,-6 -22,77 -43,153 -65,230 -19,68 -202,58 -417,57 -215,-2 -411,-38 -472,-270 -23,-89 -17,-193 16,-312 54,-191 153,-325 275,-410 122,-86 270,-123 420,-124 202,0 393,-2 429,199 11,62 1,136 -17,212 -17,77 -42,155 -63,224zm-238 -200c26,-133 -17,-208 -139,-206 -117,2 -222,76 -267,207 135,0 270,0 406,-1z"/>
  <path class="fil0 str0" d="M55 2034c36,-138 72,-276 109,-415 36,-139 72,-278 109,-417 -47,0 -95,0 -141,0 5,-19 10,-38 15,-57 13,-51 26,-102 40,-153 3,-11 6,-23 8,-34 120,0 241,0 363,-1 -48,181 -95,361 -142,540 -47,180 -94,358 -141,537 -74,0 -147,0 -220,0z"/>
  <path class="fil0 str0" d="M503 2031c-46,0 -77,-11 -94,-35 -16,-23 -19,-58 -6,-103 7,-29 21,-58 41,-87 20,-28 47,-59 82,-90 123,-114 246,-228 370,-343 17,-15 30,-31 41,-46 11,-16 17,-31 21,-46 8,-27 6,-50 -6,-68 -12,-18 -32,-27 -57,-27 -65,1 -93,59 -93,59 -59,0 -118,1 -177,1 0,0 104,-288 341,-294 89,-3 153,30 194,92 40,62 47,140 22,235 -27,103 -112,214 -253,335 -4,3 -9,7 -12,10 -65,54 -128,108 -192,162 112,0 226,0 338,0 -21,82 -43,164 -65,245 -165,0 -331,0 -495,0z"/>
  <path class="fil0 str0" d="M1391 957c121,0 244,-1 366,-1 67,0 114,16 143,46 29,32 36,74 21,128 -6,25 -18,49 -35,74 -17,24 -37,46 -59,65 -52,43 -105,86 -157,128 66,15 110,47 135,98 23,51 24,117 2,199 -29,104 -79,187 -150,249 -71,62 -155,92 -247,92 -108,0 -215,0 -322,0 23,-83 45,-166 67,-249 91,0 183,0 275,0 44,0 80,-9 107,-27 28,-19 46,-45 55,-79 9,-33 6,-59 -11,-78 -16,-19 -43,-28 -80,-28 -52,0 -106,0 -158,0 14,-50 27,-101 41,-152 89,-75 179,-150 270,-225 -110,0 -219,0 -327,0 21,-80 43,-160 64,-240z"/>
  <path class="fil1" d="M8148 823c0,21 0,64 7,79 -65,0 -132,4 -197,4 -15,0 -25,2 -39,2l-118 1c-45,0 -85,16 -115,47 -14,15 -25,32 -31,53 -14,49 14,96 42,133l49 54c7,8 13,14 20,21 8,8 12,14 20,22 7,7 13,13 20,20l48 54c4,4 7,7 11,11l79 85 -308 239c-4,3 -8,5 -12,8l-44 35c-4,3 -7,5 -11,8 -25,21 -51,40 -77,59l-45 35c-4,3 -6,5 -11,9 -15,10 -29,23 -44,34l-32 25c-6,4 -7,6 -12,9 -4,4 -7,5 -11,9 -5,3 -7,5 -11,9 -8,6 -13,10 -20,18l-18 22c-26,44 -22,92 5,133l19 25c7,10 15,16 22,25 13,17 30,30 44,48 6,9 14,15 21,23 17,21 48,55 69,70 5,3 9,5 13,8 69,43 133,-35 133,-95 0,-34 -15,-61 -33,-86 -14,-19 -33,-35 -48,-55 -3,-3 -5,-4 -7,-8 8,-5 15,-11 23,-17 4,-3 6,-5 11,-8l102 -79c4,-4 7,-6 11,-9 5,-3 7,-5 12,-9 5,-3 6,-5 11,-9 27,-19 52,-42 79,-61 8,-6 16,-12 24,-18 4,-4 6,-5 11,-9l46 -35c32,-23 91,-71 125,-97l182 -141c31,-20 71,-51 71,-93 0,-18 -7,-37 -15,-53 -10,-20 -36,-50 -52,-67l-101 -107c-6,-6 -8,-10 -14,-16 -9,-10 -22,-21 -28,-32 80,0 160,-7 241,-7 21,0 41,1 60,-2 15,-2 35,-9 46,-17 13,-9 23,-17 32,-31 21,-30 18,-62 8,-96 -9,-31 -30,-58 -30,-111 0,-14 4,-38 8,-49 21,-60 73,-102 127,-129 56,-27 141,-37 202,-14 84,31 144,128 76,208 -18,22 -82,52 -109,70 -26,16 -50,42 -50,80 0,26 1,47 14,69 15,26 39,44 67,55 37,15 88,10 124,-1 9,-2 19,-6 28,-10 76,-31 141,-96 178,-171 21,-43 30,-89 30,-147 0,-69 -28,-147 -68,-202l-34 -46 -45 -49c-26,-24 -53,-47 -83,-64 -37,-23 -67,-38 -112,-50 -82,-21 -177,-16 -256,9 -35,11 -82,27 -114,47 -11,7 -21,13 -32,20l-88 74c-5,5 -7,9 -12,14 -31,31 -56,83 -69,123 -8,24 -15,62 -15,94z"/>
  <path class="fil1" d="M8920 1583c0,54 10,65 28,108 6,16 13,29 20,44l19 44c6,14 14,29 20,44l29 66c3,5 9,17 10,22 -13,-3 -46,-17 -63,-23 -8,-3 -14,-5 -22,-8 -42,-17 -85,-30 -128,-47l-63 -23c-7,-3 -14,-6 -21,-8 -44,-17 -107,-38 -149,-55l-151 -55c-65,-20 -137,-29 -203,-8 -57,18 -103,42 -147,82 -86,79 -122,202 -101,318l15 58c3,9 6,18 9,26 7,18 13,34 22,51 3,5 5,8 7,12 3,4 4,8 7,12 9,14 36,51 47,60 26,22 52,46 90,55 10,3 20,4 29,4l8 0c13,0 26,-3 39,-10 6,-3 11,-5 17,-10 5,-4 10,-8 14,-13 12,-15 13,-16 21,-34 15,-34 13,-71 -5,-101 -14,-24 -40,-29 -66,-74 -25,-43 -18,-95 6,-137 24,-41 77,-57 124,-48 21,3 79,24 100,32 11,5 21,8 33,12l130 48c64,21 131,48 196,70l326 119c45,15 44,18 93,18 42,0 92,-35 103,-76 13,-49 4,-83 -17,-127 -3,-5 -5,-10 -8,-16 -4,-11 -9,-21 -14,-31 -2,-5 -4,-10 -6,-15l-106 -236c-12,-29 -31,-66 -42,-93l-28 -63c-23,-56 -58,-90 -129,-82 -48,6 -93,33 -93,88z"/>
  <path class="fil2" d="M7304 250c0,104 6,199 42,293 34,90 93,169 191,196 128,36 244,-12 341,-87 37,-28 66,-56 95,-79l90 -82c32,-30 106,-80 153,-80 67,0 80,28 109,48 -6,-27 -51,-91 -73,-113 -56,-54 -121,-85 -198,-48 -44,22 -99,73 -156,109l-39 23c-15,9 -40,20 -56,26 -10,4 -18,9 -28,12l-67 16c-37,5 -75,5 -111,-3 -57,-13 -105,-42 -147,-80 -4,-4 -6,-6 -10,-10 -20,-20 -59,-70 -71,-92l-30 -52c-7,-17 -23,-42 -26,-56l-5 0c0,8 -1,19 -2,29 -2,10 -2,17 -2,30z"/>
  <path class="fil3" d="M8526 1878c91,-1388 -52,728 37,-569 7,-3 78,41 107,47 31,5 62,7 95,-3l98 -26c46,-6 94,-30 140,-36l28 -7c9,-1 18,-6 27,-7l210 -55c5,-1 8,-1 13,-3 36,-14 80,-15 113,-30 11,-4 16,-2 28,-7l209 -53c5,-1 9,-4 14,-5 5,-2 9,-1 14,-2 6,-2 9,-5 15,-6 25,-6 50,-10 76,-20l216 -55c6,-2 8,-2 14,-3 52,-13 67,-21 151,-14 -85,58 -107,71 -267,145 -10,6 -18,7 -28,13 -10,6 -18,7 -28,13 -19,11 -38,15 -57,26 -28,17 -56,23 -85,40 -7,4 -7,3 -14,5l-113 51c-5,3 -9,6 -14,9l-71 31c-22,12 -53,28 -72,34 -19,5 -39,21 -57,26 -19,5 -35,18 -56,24 -24,8 -58,31 -85,40l-70 33c-6,4 -8,3 -15,6l-226 104c-37,22 -76,31 -113,52 -16,10 -33,14 -56,29 -19,12 -39,27 -59,44 -38,34 -111,126 -119,129zm205 -613c177,0 321,118 321,263 0,145 -144,263 -321,263 -178,0 -321,-118 -321,-263 0,-145 143,-263 321,-263zm-247 98c0,1 1,2 1,2 19,39 31,81 31,125 0,100 -60,171 -137,225l-179 138c-43,33 -85,68 -128,99l-47 36 -2 1c-1,1 -2,2 -3,3 -11,9 -22,17 -33,25 -26,18 -49,39 -75,58 -4,4 -8,7 -13,10 -3,3 -7,6 -11,9 -1,1 -2,2 -3,3 -1,0 -1,0 -1,0l-2 2 -13 10c17,36 26,74 26,117 0,190 -203,343 -381,234 -8,-5 -15,-9 -23,-14 -34,-25 -70,-63 -98,-97 -10,-10 -19,-19 -28,-31 -13,-15 -27,-28 -41,-44 -8,-10 -17,-18 -25,-29l-23 -30 -3 -5c-60,-94 -65,-209 -7,-305l5 -9 29 -37 7 -7c10,-11 21,-21 33,-30 4,-4 9,-8 14,-12 4,-3 8,-6 12,-9 5,-3 9,-7 13,-10l33 -26 3 -1c14,-11 27,-23 42,-33 3,-3 6,-5 9,-7l44 -35c24,-18 49,-36 72,-55 6,-5 12,-9 18,-14l44 -34c3,-2 7,-5 10,-8l169 -130 -20 -22c-5,-5 -10,-10 -15,-15 -7,-8 -13,-15 -20,-22 -7,-7 -14,-15 -21,-22l-2 -2 -55 -62 -5 -5c-61,-81 -98,-174 -68,-277 13,-45 37,-86 70,-120 61,-64 143,-97 231,-97l119 -2 2 0c13,0 25,-2 38,-2 12,0 24,0 35,0 4,-23 9,-45 16,-65 21,-64 57,-134 103,-183 5,-5 10,-11 15,-17l6 -6 103 -86 8 -5c12,-8 23,-14 35,-22 46,-28 99,-47 151,-64 109,-35 235,-40 346,-11 59,15 105,36 156,67 40,23 75,52 109,83l5 5 57 61 39 54c61,83 99,196 99,299 0,78 -12,149 -46,219 -54,110 -148,203 -262,251 -15,6 -30,11 -46,16 -73,21 -159,24 -230,-5 -58,-24 -107,-62 -141,-114 -15,17 -32,31 -51,44 -29,20 -65,35 -100,42zm-1140 -1332c103,81 237,234 382,219l47 -11c6,-2 11,-4 16,-6 10,-3 23,-8 31,-13l35 -20c55,-32 100,-74 159,-101 129,-59 255,-24 356,68 43,40 100,119 115,176l94 370 -326 -200c-8,-5 -14,-10 -21,-15 -14,7 -32,19 -40,26l-2 2 -92 78 -4 3c-31,22 -59,48 -90,70 -133,96 -289,144 -452,101 -137,-36 -232,-136 -284,-265 -65,-215 15,-380 76,-482zm2120 1603l28 58 1 3c13,28 28,56 41,85l105 217 1 1c1,3 2,6 4,9 5,10 10,21 15,32 2,4 4,8 6,12 40,77 53,150 29,235 -31,111 -146,190 -259,190 -62,0 -86,-6 -143,-25l-2 0 -326 -110c-65,-21 -129,-45 -194,-65l-1 -1 -116 -39c24,66 22,138 -8,203 -13,28 -25,44 -44,67 -12,15 -25,26 -41,38 -15,11 -28,18 -45,26 -32,16 -68,24 -104,25l-3 1 -12 0 -3 0c-20,-1 -40,-4 -60,-8 -64,-15 -103,-42 -152,-80 -29,-22 -66,-66 -86,-98 -3,-4 -6,-9 -9,-14 -3,-5 -6,-10 -9,-14 -12,-22 -22,-44 -32,-67 -3,-9 -6,-17 -9,-25l-4 -10 -19 -69 -1 -6c-32,-167 26,-340 156,-450 62,-53 128,-87 207,-109 96,-28 196,-20 292,6l4 2 159 54 4 1c32,13 66,23 99,34 -1,-11 -1,-22 -1,-35 0,-137 108,-228 237,-243 136,-15 240,48 295,169z"/>
  <path class="fil4" d="M8264 394c-9,66 36,160 9,281 -38,168 37,256 -94,467 -53,83 -71,178 -136,250 -86,96 -164,444 -49,536 50,40 27,136 232,147 120,6 330,59 433,-8 86,-56 223,-76 338,-199 69,-73 116,-98 173,-198 50,-91 80,-97 80,-227 0,-433 -21,-359 -262,-726 -67,-102 -264,-289 -375,-327 -70,-23 -340,-70 -349,4z"/>
  <path class="fil5" d="M8526 1878c91,-1388 -52,728 37,-569 7,-3 78,41 107,47 31,5 62,7 95,-3l98 -26c46,-6 94,-30 140,-36l28 -7c9,-1 18,-6 27,-7l210 -55c5,-1 8,-1 13,-3 36,-14 80,-15 113,-30 11,-4 16,-2 28,-7l209 -53c5,-1 9,-4 14,-5 5,-2 9,-1 14,-2 6,-2 9,-5 15,-6 25,-6 50,-10 76,-20l216 -55c6,-2 8,-2 14,-3 52,-13 67,-21 151,-14 -85,58 -107,71 -267,145 -10,6 -18,7 -28,13 -10,6 -18,7 -28,13 -19,11 -38,15 -57,26 -28,17 -56,23 -85,40 -7,4 -7,3 -14,5l-113 51c-5,3 -9,6 -14,9l-71 31c-22,12 -53,28 -72,34 -19,5 -39,21 -57,26 -19,5 -35,18 -56,24 -24,8 -58,31 -85,40l-70 33c-6,4 -8,3 -15,6l-226 104c-37,22 -76,31 -113,52 -16,10 -33,14 -56,29 -19,12 -39,27 -59,44 -38,34 -111,126 -119,129zm205 -613c177,0 321,118 321,263 0,145 -144,263 -321,263 -178,0 -321,-118 -321,-263 0,-145 143,-263 321,-263zm-247 98c0,1 1,2 1,2 19,39 31,81 31,125 0,100 -60,171 -137,225l-179 138c-43,33 -85,68 -128,99l-47 36 -2 1c-1,1 -2,2 -3,3 -11,9 -22,17 -33,25 -26,18 -49,39 -75,58 -4,4 -8,7 -13,10 -3,3 -7,6 -11,9 -1,1 -2,2 -3,3 -1,0 -1,0 -1,0l-2 2 -13 10c17,36 26,74 26,117 0,190 -203,343 -381,234 -8,-5 -15,-9 -23,-14 -34,-25 -70,-63 -98,-97 -10,-10 -19,-19 -28,-31 -13,-15 -27,-28 -41,-44 -8,-10 -17,-18 -25,-29l-23 -30 -3 -5c-60,-94 -65,-209 -7,-305l5 -9 29 -37 7 -7c10,-11 21,-21 33,-30 4,-4 9,-8 14,-12 4,-3 8,-6 12,-9 5,-3 9,-7 13,-10l33 -26 3 -1c14,-11 27,-23 42,-33 3,-3 6,-5 9,-7l44 -35c24,-18 49,-36 72,-55 6,-5 12,-9 18,-14l44 -34c3,-2 7,-5 10,-8l169 -130 -20 -22c-5,-5 -10,-10 -15,-15 -7,-8 -13,-15 -20,-22 -7,-7 -14,-15 -21,-22l-2 -2 -55 -62 -5 -5c-61,-81 -98,-174 -68,-277 13,-45 37,-86 70,-120 61,-64 143,-97 231,-97l119 -2 2 0c13,0 25,-2 38,-2 12,0 24,0 35,0 4,-23 9,-45 16,-65 21,-64 57,-134 103,-183 5,-5 10,-11 15,-17l6 -6 103 -86 8 -5c12,-8 23,-14 35,-22 46,-28 99,-47 151,-64 109,-35 235,-40 346,-11 59,15 105,36 156,67 40,23 75,52 109,83l5 5 57 61 39 54c61,83 99,196 99,299 0,78 -12,149 -46,219 -54,110 -148,203 -262,251 -15,6 -30,11 -46,16 -73,21 -159,24 -230,-5 -58,-24 -107,-62 -141,-114 -15,17 -32,31 -51,44 -29,20 -65,35 -100,42zm-1140 -1332c103,81 237,234 382,219l47 -11c6,-2 11,-4 16,-6 10,-3 23,-8 31,-13l35 -20c55,-32 100,-74 159,-101 129,-59 255,-24 356,68 43,40 100,119 115,176l94 370 -326 -200c-8,-5 -14,-10 -21,-15 -14,7 -32,19 -40,26l-2 2 -92 78 -4 3c-31,22 -59,48 -90,70 -133,96 -289,144 -452,101 -137,-36 -232,-136 -284,-265 -65,-215 15,-380 76,-482zm2120 1603l28 58 1 3c13,28 28,56 41,85l105 217 1 1c1,3 2,6 4,9 5,10 10,21 15,32 2,4 4,8 6,12 40,77 53,150 29,235 -31,111 -146,190 -259,190 -62,0 -86,-6 -143,-25l-2 0 -326 -110c-65,-21 -129,-45 -194,-65l-1 -1 -116 -39c24,66 22,138 -8,203 -13,28 -25,44 -44,67 -12,15 -25,26 -41,38 -15,11 -28,18 -45,26 -32,16 -68,24 -104,25l-3 1 -12 0 -3 0c-20,-1 -40,-4 -60,-8 -64,-15 -103,-42 -152,-80 -29,-22 -66,-66 -86,-98 -3,-4 -6,-9 -9,-14 -3,-5 -6,-10 -9,-14 -12,-22 -22,-44 -32,-67 -3,-9 -6,-17 -9,-25l-4 -10 -19 -69 -1 -6c-32,-167 26,-340 156,-450 62,-53 128,-87 207,-109 96,-28 196,-20 292,6l4 2 159 54 4 1c32,13 66,23 99,34 -1,-11 -1,-22 -1,-35 0,-137 108,-228 237,-243 136,-15 240,48 295,169z"/>
  <path class="fil5" d="M8264 394c-9,66 36,160 9,281 -38,168 37,256 -94,467 -53,83 -71,178 -136,250 -86,96 -164,444 -49,536 50,40 27,136 232,147 120,6 330,59 433,-8 86,-56 223,-76 338,-199 69,-73 116,-98 173,-198 50,-91 80,-97 80,-227 0,-433 -21,-359 -262,-726 -67,-102 -264,-289 -375,-327 -70,-23 -340,-70 -349,4z"/>
  <path class="fil4" d="M8603 1878c91,-1388 -52,728 38,-569 7,-3 77,41 106,47 32,5 62,7 95,-3l98 -26c46,-6 94,-30 141,-36l27 -7c9,-1 18,-6 28,-7l209 -55c5,-1 8,-1 14,-3 36,-14 79,-15 113,-30 11,-4 16,-2 27,-7l210 -53c5,-1 8,-4 14,-5 5,-2 8,-1 13,-2 7,-2 9,-5 15,-6 26,-6 51,-10 76,-20l216 -55c6,-2 9,-2 14,-3 43,-11 61,-18 112,-17l0 29c-57,38 -95,58 -227,119 -11,6 -18,7 -28,13 -11,6 -18,7 -28,13 -20,11 -38,15 -57,26 -29,17 -57,23 -86,40 -6,4 -6,3 -14,5l-113 51c-5,3 -9,6 -14,9l-71 31c-21,12 -52,28 -71,34 -20,5 -39,21 -57,26 -19,5 -35,18 -56,24 -25,8 -59,31 -85,40l-70 33c-7,4 -9,3 -15,6l-227 104c-36,22 -76,31 -113,52 -16,10 -33,14 -56,29 -19,12 -38,27 -58,44 -39,34 -111,126 -120,129zm205 -613c178,0 322,118 322,263 0,145 -144,263 -322,263 -177,0 -321,-118 -321,-263 0,-145 144,-263 321,-263zm-246 98c0,1 0,2 1,2 19,39 31,81 31,125 0,100 -61,171 -138,225l-179 138c-42,33 -84,68 -128,99l-46 36 -2 1c-1,1 -3,2 -4,3 -11,9 -21,17 -33,25 -25,18 -49,39 -74,58 -5,4 -9,7 -13,10 -4,3 -8,6 -11,9 -2,1 -3,2 -4,3 0,0 0,0 0,0l-3 2 -13 10c17,36 27,74 27,117 0,190 -204,343 -381,234 -8,-5 -16,-9 -23,-14 -35,-25 -71,-63 -98,-97 -11,-10 -20,-19 -28,-31 -13,-15 -28,-28 -41,-44 -9,-10 -17,-18 -25,-29l-23 -30 -4 -5c-60,-94 -64,-209 -7,-305l6 -9 29 -37 6 -7c11,-11 21,-21 33,-30 5,-4 9,-8 14,-12 4,-3 9,-6 13,-9 4,-3 8,-7 12,-10l34 -26 2 -1c15,-11 28,-23 43,-33 2,-3 5,-5 8,-7l45 -35c24,-18 49,-36 72,-55 6,-5 11,-9 17,-14l45 -34c3,-2 6,-5 10,-8l168 -130 -20 -22c-4,-5 -10,-10 -15,-15 -7,-8 -13,-15 -19,-22 -7,-7 -15,-15 -22,-22l-2 -2 -55 -62 -4 -5c-61,-81 -98,-174 -69,-277 13,-45 37,-86 70,-120 62,-64 144,-97 232,-97l119 -2 1 0c13,0 26,-2 39,-2 11,0 23,0 35,0 4,-23 9,-45 16,-65 20,-64 56,-134 103,-183 5,-5 9,-11 15,-17l6 -6 102 -86 9 -5c11,-8 23,-14 34,-22 46,-28 100,-47 151,-64 109,-35 236,-40 347,-11 58,15 104,36 155,67 40,23 75,52 109,83l5 5 57 61 40 54c61,83 99,196 99,299 0,78 -13,149 -47,219 -54,110 -148,203 -262,251 -15,6 -30,11 -45,16 -74,21 -160,24 -231,-5 -58,-24 -106,-62 -140,-114 -15,17 -32,31 -52,44 -28,20 -65,35 -99,42zm-1140 -1332c102,81 237,234 382,219l47 -11c5,-2 10,-4 16,-6 9,-3 22,-8 31,-13l35 -20c54,-32 100,-74 159,-101 128,-59 255,-24 355,68 44,40 101,119 115,176l94 370 -325 -200c-8,-5 -15,-10 -21,-15 -15,7 -33,19 -40,26l-2 2 -92 78 -5 3c-30,22 -58,48 -90,70 -133,96 -289,144 -451,101 -138,-36 -233,-136 -285,-265 -64,-215 16,-380 77,-482zm2119 1603l28 58 1 3c13,28 29,56 42,85l105 217 0 1c2,3 3,6 4,9 6,10 11,21 16,32 2,4 4,8 5,12 41,77 54,150 30,235 -31,111 -147,190 -260,190 -62,0 -86,-6 -143,-25l-1 0 -326 -110c-65,-21 -129,-45 -194,-65l-2 -1 -116 -39c25,66 22,138 -8,203 -13,28 -24,44 -43,67 -13,15 -26,26 -41,38 -15,11 -29,18 -45,26 -33,16 -68,24 -105,25l-2 1 -13 0 -2 0c-21,-1 -41,-4 -61,-8 -63,-15 -102,-42 -152,-80 -29,-22 -65,-66 -86,-98 -3,-4 -5,-9 -8,-14 -3,-5 -6,-10 -9,-14 -13,-22 -22,-44 -32,-67 -4,-9 -6,-17 -10,-25l-3 -10 -19 -69 -1 -6c-33,-167 25,-340 155,-450 62,-53 129,-87 207,-109 96,-28 197,-20 292,6l5 2 159 54 3 1c32,13 66,23 99,34 0,-11 -1,-22 -1,-35 0,-137 108,-228 238,-243 135,-16 240,48 294,169z"/>
  <path class="fil4" d="M8341 394c-8,66 36,160 9,281 -38,168 37,256 -94,467 -52,83 -71,178 -135,250 -86,96 -164,444 -49,536 50,40 27,136 232,147 120,6 329,59 432,-8 87,-56 224,-76 339,-199 68,-73 116,-98 172,-198 51,-91 81,-97 81,-227 0,-433 -21,-359 -263,-726 -67,-102 -264,-289 -374,-327 -70,-23 -341,-70 -350,4z"/>
  <path class="fil6 str1" d="M8738 1690c-223,-612 113,322 -91,-251 6,-2 84,5 114,3 31,-3 61,-7 91,-17l89 -27c44,-10 85,-28 129,-38l25 -8c8,-2 16,-5 25,-7l191 -58c5,-1 8,-1 13,-3 31,-12 73,-20 103,-31 9,-4 14,-4 25,-8l191 -57c5,-1 8,-3 12,-4 5,-2 8,-2 13,-4 6,-1 8,-3 14,-4 23,-7 46,-13 69,-21l197 -59c5,-2 8,-2 13,-4 48,-14 61,-20 144,-30 -70,39 -88,48 -227,105 -8,5 -16,6 -24,11 -9,4 -16,5 -24,10 -16,8 -34,12 -50,20 -24,12 -50,19 -74,31 -5,3 -5,3 -12,5l-98 40c-5,2 -8,4 -12,6l-62 25c-18,9 -45,21 -62,26 -17,6 -33,16 -49,21 -18,5 -30,13 -49,19 -22,8 -50,23 -74,31l-60 26c-6,2 -8,2 -14,5l-196 81c-31,16 -67,26 -98,41 -13,7 -29,12 -48,22 -16,8 -31,17 -47,28 -30,21 -80,72 -87,75z"/>
  <g id="_2843694570736">
   <g style="clip-path:url(#id0)">
    <image x="7177" y="193" width="2340" height="2411" xlink:href="logo 123 amosrtra-svg_Images\logo 123 amosrtra-svg_ImgID1.jpg"/>
   </g>
  </g>
  <path class="fil7 str0" d="M8331 873c0,21 -1,65 6,80 -65,0 -132,3 -197,3 -15,0 -26,2 -39,2l-119 2c-45,0 -85,15 -115,47 -15,15 -25,32 -31,52 -14,50 14,97 42,134l49 54c7,8 13,14 20,22 8,7 13,14 20,22 7,7 13,13 20,20l48 53c4,5 7,7 11,11l79 86 -309 239c-3,3 -7,6 -11,9l-44 34c-4,4 -7,5 -11,9 -25,21 -52,39 -78,59l-45 35c-4,3 -6,5 -11,9 -15,11 -29,23 -44,34l-33 26c-5,3 -6,5 -11,8 -4,4 -7,5 -11,9 -5,3 -7,5 -11,9 -8,6 -13,11 -20,18l-18 23c-26,43 -22,91 4,133l20 25c7,9 14,15 22,25 13,17 30,30 44,48 6,9 14,15 21,23 17,21 48,56 69,70 5,4 9,5 14,8 69,44 133,-35 133,-95 0,-34 -15,-61 -34,-86 -14,-19 -33,-36 -48,-55 -3,-3 -4,-4 -7,-8 8,-6 16,-11 23,-17 5,-3 7,-5 11,-9l103 -79c4,-4 7,-5 11,-9 4,-3 6,-5 11,-9 5,-3 6,-5 11,-8 28,-20 53,-43 80,-62 9,-6 16,-12 24,-18 5,-4 6,-5 11,-9l46 -35c33,-24 92,-71 126,-98l182 -140c31,-21 71,-52 71,-94 0,-19 -7,-37 -14,-53 -10,-20 -36,-50 -53,-67l-101 -108c-6,-6 -8,-10 -14,-16 -9,-9 -22,-20 -28,-32 80,0 160,-7 241,-7 21,0 41,1 61,-2 15,-2 34,-9 45,-17 14,-9 24,-17 33,-31 21,-30 18,-62 8,-96 -9,-32 -30,-58 -30,-111 0,-15 4,-39 8,-50 21,-60 73,-102 128,-129 56,-27 141,-37 202,-14 84,31 144,129 76,208 -18,22 -82,53 -110,70 -25,16 -50,43 -50,81 0,26 1,47 14,69 16,26 40,44 68,55 36,15 88,10 124,0 10,-3 19,-7 28,-10 77,-32 141,-97 178,-172 21,-44 30,-90 30,-147 0,-70 -27,-148 -67,-203l-34 -47 -46 -49c-26,-23 -53,-46 -83,-64 -37,-22 -67,-38 -113,-49 -82,-22 -177,-17 -256,9 -35,11 -82,27 -114,46 -11,8 -22,14 -33,21l-88 73c-5,6 -7,9 -12,15 -30,30 -56,83 -68,123 -8,24 -15,62 -15,94z"/>
  <g id="_2843694571760">
   <g style="clip-path:url(#id1)">
    <image x="8133" y="1485" width="1614" height="1066" xlink:href="logo 123 amosrtra-svg_Images\logo 123 amosrtra-svg_ImgID2.jpg"/>
   </g>
  </g>
  <path class="fil8 str0" d="M9186 1700c0,50 10,60 27,100 7,14 13,27 20,41l19 41c6,13 14,27 20,41l30 61c3,5 8,16 9,21 -12,-3 -46,-16 -63,-22 -8,-2 -14,-4 -21,-7 -43,-16 -86,-29 -128,-44l-63 -21c-7,-3 -15,-6 -22,-8 -43,-16 -107,-35 -148,-51l-151 -51c-65,-18 -137,-27 -204,-7 -57,16 -103,39 -147,76 -86,73 -122,187 -101,296l15 53c3,9 6,17 9,25 7,16 13,31 22,47 3,4 5,7 7,11 3,4 4,7 7,11 9,14 36,48 47,56 27,20 52,43 90,51 10,3 20,4 30,4l7 0c14,0 26,-3 39,-9 6,-3 12,-5 17,-9 5,-4 10,-8 14,-13 12,-14 14,-15 22,-32 14,-31 12,-65 -6,-93 -13,-22 -40,-27 -66,-69 -25,-40 -18,-89 7,-128 23,-37 76,-52 124,-44 20,3 78,22 99,30 11,4 22,7 33,11l131 44c64,20 131,45 195,66l326 110c45,14 44,17 94,17 41,0 92,-32 103,-71 13,-45 4,-77 -18,-118 -2,-5 -4,-9 -7,-15 -4,-10 -9,-20 -14,-29 -3,-5 -4,-9 -7,-14l-105 -219c-12,-27 -31,-62 -43,-87l-27 -58c-24,-52 -58,-84 -129,-76 -48,5 -93,31 -93,82z"/>
  <g id="_2843694571248">
   <g style="clip-path:url(#id2)">
    <image x="7318" y="21" width="1227" height="718" xlink:href="logo 123 amosrtra-svg_Images\logo 123 amosrtra-svg_ImgID3.jpg"/>
   </g>
  </g>
  <path class="fil9 str0" d="M7672 642c130,32 247,-10 346,-76 37,-25 66,-50 95,-70l92 -72c32,-27 107,-71 154,-71 68,0 81,25 111,42 11,-135 -175,-261 -290,-213 -138,63 -128,159 -354,180 -143,11 -323,-109 -376,-248 -77,48 -93,466 222,528z"/>
  <path class="fil4" d="M8274 529c3,-1 -1,16 0,20 2,6 5,34 7,36 2,2 23,-5 26,-7 3,-1 19,-10 18,-14 -1,1 -4,2 -1,-1 8,-11 17,-19 24,-30 4,-6 13,-10 13,-21 0,-10 -15,-14 -23,-17 -12,-5 -26,-6 -39,-6 -5,0 -24,7 -27,12 -6,9 -6,7 -6,19 0,0 1,5 4,6 9,2 4,4 4,3z"/>
  <path class="fil4" d="M8013 1995c10,-28 82,79 118,78 27,-1 26,-112 7,-117 -35,-8 -5,-21 -89,-21 -74,0 -32,38 -33,41 0,4 -4,20 -3,19z"/>
  <path class="fil10" d="M7990 2056l14 68 2 -60 21 -18c2,-2 -4,-2 -7,-1l-30 11z"/>
  <path class="fil11 str0" d="M4232 1557c-231,0 -461,1 -691,1 -63,159 48,201 215,199 124,-2 247,-4 371,-6 -22,77 -43,153 -64,229 -19,69 -202,59 -415,57 -215,-2 -409,-37 -471,-269 -23,-88 -18,-192 15,-311 52,-191 150,-324 271,-409 122,-86 268,-123 417,-124 202,0 392,-2 429,198 11,62 1,136 -16,213 -17,76 -41,153 -61,222zm-239 -199c25,-132 -18,-207 -139,-205 -116,1 -221,76 -266,206 135,0 270,0 405,-1z"/>
  <path class="fil11 str0" d="M5831 406c134,0 268,-1 403,-1 -79,274 -158,547 -236,819 -78,271 -156,542 -233,812 -133,0 -266,0 -399,-1 77,-269 154,-540 232,-811 77,-272 155,-544 233,-818z"/>
  <path class="fil11 str0" d="M2473 934c44,0 89,0 133,0 -31,115 -62,230 -94,344 -48,0 -97,0 -146,0 -35,128 -68,255 -103,381 -34,127 -68,254 -102,380 -132,0 -264,0 -396,0 37,-137 75,-275 112,-414 37,-138 75,-277 112,-416 29,-110 59,-220 88,-330 3,-8 5,-17 8,-26 -1,0 7,-26 8,-27 112,-408 91,-412 667,-406 -27,100 -55,201 -82,301 -71,0 -161,44 -172,86 -12,43 -23,85 -33,127z"/>
  <path class="fil11 str0" d="M2706 936c116,0 233,0 350,-1 -10,43 -17,61 -14,61 7,-1 82,-59 240,-63 -25,85 -50,170 -74,254 -138,4 -170,-12 -211,134 -17,57 -38,138 -70,255 -32,117 -73,269 -129,466 -131,0 -263,-1 -394,-2 50,-183 100,-367 150,-550 51,-184 101,-369 152,-554z"/>
  <path class="fil11 str0" d="M6121 1225c20,-78 41,-156 62,-233 2,-7 33,-38 58,-45 148,-41 928,-73 862,240 -33,156 -69,290 -104,425 -35,135 -71,270 -106,426 -122,0 -242,0 -362,0 10,-34 13,-47 23,-82 -130,91 -339,82 -419,82 -152,0 -256,-137 -202,-323 113,-394 548,-349 779,-378 22,-76 -22,-128 -93,-136 -155,-17 -385,8 -498,24zm538 322c-147,7 -437,39 -438,195 0,181 380,6 392,-32 15,-52 15,-51 46,-163z"/>
  <path class="fil11 str0" d="M5402 1558c-232,0 -463,0 -693,1 -64,159 47,201 215,199 124,-2 248,-4 372,-6 -22,77 -43,153 -65,230 -19,68 -203,58 -418,57 -214,-2 -410,-38 -471,-270 -23,-89 -17,-193 16,-312 54,-191 153,-325 275,-410 122,-86 269,-123 420,-124 202,0 393,-2 429,199 11,62 1,136 -17,212 -17,77 -42,155 -63,224zm-238 -200c26,-133 -17,-208 -139,-206 -117,2 -222,76 -267,207 134,0 270,0 406,-1z"/>
  <path class="fil11 str0" d="M9 2034c36,-138 72,-276 109,-415 36,-139 72,-278 109,-417 -48,0 -95,0 -141,0 5,-19 10,-38 15,-57 13,-51 26,-102 40,-153 2,-11 5,-23 8,-34 120,0 241,0 362,-1 -47,181 -94,361 -141,540 -48,180 -95,358 -142,537 -73,0 -146,0 -219,0z"/>
  <path class="fil11 str0" d="M457 2031c-46,0 -77,-11 -94,-35 -16,-23 -19,-58 -7,-103 8,-29 22,-58 42,-87 19,-28 46,-59 82,-90 122,-114 246,-228 370,-343 16,-15 30,-31 41,-46 10,-16 17,-31 21,-46 7,-27 6,-50 -6,-68 -12,-18 -32,-27 -57,-27 -65,1 -94,59 -94,59 -59,0 -117,1 -176,1 0,0 104,-288 341,-294 89,-3 153,30 193,92 41,62 48,140 23,235 -28,103 -112,214 -253,335 -5,3 -9,7 -13,10 -64,54 -127,108 -191,162 112,0 226,0 338,0 -22,82 -43,164 -65,245 -165,0 -331,0 -495,0z"/>
  <path class="fil11 str0" d="M1345 957c121,0 244,-1 366,-1 67,0 114,16 142,46 30,32 37,74 22,128 -6,25 -18,49 -35,74 -17,24 -37,46 -60,65 -52,43 -104,86 -157,128 67,15 111,47 136,98 23,51 23,117 1,199 -28,104 -78,187 -149,249 -71,62 -155,92 -247,92 -108,0 -215,0 -322,0 22,-83 45,-166 67,-249 91,0 183,0 275,0 44,0 79,-9 107,-27 27,-19 46,-45 55,-79 9,-33 6,-59 -11,-78 -16,-19 -43,-28 -80,-28 -52,0 -106,0 -158,0 14,-50 27,-101 41,-152 89,-75 179,-150 269,-225 -109,0 -218,0 -326,0 21,-80 42,-160 64,-240z"/>
 </g>
</svg>
